<svg width="23" height="23" viewBox="0 0 23 23" fill="none" xmlns="http://www.w3.org/2000/svg">
<path d="M16.6562 19.75L13.9062 22.5L11.25 19.8438L14 17.0938C13.9167 16.8646 13.8542 16.625 13.8125 16.375C13.7708 16.125 13.75 15.875 13.75 15.625C13.75 14.4167 14.1771 13.3854 15.0312 12.5312C15.8854 11.6771 16.9167 11.25 18.125 11.25C18.5 11.25 18.8646 11.2969 19.2188 11.3906C19.5729 11.4844 19.9062 11.6146 20.2188 11.7812L17.25 14.75L19 16.5L21.9688 13.5625C22.1354 13.875 22.2656 14.2031 22.3594 14.5469C22.4531 14.8906 22.5 15.25 22.5 15.625C22.5 16.8333 22.0729 17.8646 21.2188 18.7188C20.3646 19.5729 19.3333 20 18.125 20C17.8542 20 17.599 19.9792 17.3594 19.9375C17.1198 19.8958 16.8854 19.8333 16.6562 19.75ZM22.2188 8.75H19.625C19.0833 6.91667 18.0521 5.41667 16.5312 4.25C15.0104 3.08333 13.25 2.5 11.25 2.5C8.8125 2.5 6.74479 3.34896 5.04688 5.04688C3.34896 6.74479 2.5 8.8125 2.5 11.25C2.5 12.75 2.83854 14.125 3.51562 15.375C4.19271 16.625 5.10417 17.6458 6.25 18.4375V15H8.75V22.5H1.25V20H4.1875C2.89583 18.9583 1.875 17.6823 1.125 16.1719C0.375 14.6615 0 13.0208 0 11.25C0 9.6875 0.296875 8.22396 0.890625 6.85938C1.48438 5.49479 2.28646 4.30729 3.29688 3.29688C4.30729 2.28646 5.49479 1.48438 6.85938 0.890625C8.22396 0.296875 9.6875 0 11.25 0C13.9375 0 16.2969 0.828125 18.3281 2.48438C20.3594 4.14062 21.6562 6.22917 22.2188 8.75Z" fill="#3949AB"/>
</svg>
