<svg width="26" height="26" viewBox="0 0 26 26" fill="none" xmlns="http://www.w3.org/2000/svg">
<path d="M4.75 9.875C5.5625 9.875 6.33334 10.0208 7.0625 10.3125C7.79167 10.6042 8.45834 11.0312 9.0625 11.5938L21 23H21.75C22.1042 23 22.401 22.8802 22.6406 22.6406C22.8802 22.401 23 22.1042 23 21.75C23 21.5833 22.9844 21.4062 22.9531 21.2188C22.9219 21.0312 22.8125 20.8438 22.625 20.6562L16.9063 14.9375L14.6875 8.25L12.375 8.8125C11.5833 9.02083 10.8646 8.875 10.2188 8.375C9.57292 7.875 9.25 7.21875 9.25 6.40625V3.78125L8.375 3.34375L3.5625 9.78125C3.54167 9.80208 3.53125 9.81771 3.53125 9.82812C3.53125 9.83854 3.52084 9.85417 3.5 9.875H4.75ZM4.75 12.375H3.3125C3.375 12.5208 3.45313 12.6562 3.54688 12.7812C3.64063 12.9062 3.75 13.0208 3.875 13.125L14 22.3438C14.2292 22.5729 14.4896 22.7396 14.7813 22.8438C15.0729 22.9479 15.375 23 15.6875 23H17.375L7.34375 13.4062C6.98959 13.0521 6.58854 12.7917 6.14063 12.625C5.69271 12.4583 5.22917 12.375 4.75 12.375ZM15.6875 25.5C15.0625 25.5 14.4688 25.3854 13.9063 25.1562C13.3438 24.9271 12.8229 24.6042 12.3438 24.1875L2.1875 14.9688C1.22917 14.0938 0.692711 13.0208 0.578128 11.75C0.463545 10.4792 0.79167 9.32292 1.5625 8.28125L6.375 1.84375C6.72917 1.36458 7.20313 1.04688 7.79688 0.890625C8.39063 0.734375 8.95834 0.802084 9.5 1.09375L10.375 1.53125C10.8125 1.76042 11.151 2.07292 11.3906 2.46875C11.6302 2.86458 11.75 3.30208 11.75 3.78125V6.40625L14.0625 5.8125C14.6875 5.64583 15.2917 5.72396 15.875 6.04688C16.4583 6.36979 16.8542 6.83333 17.0625 7.4375L19.0938 13.5625L24.4063 18.875C24.8229 19.2917 25.1094 19.7396 25.2656 20.2188C25.4219 20.6979 25.5 21.2083 25.5 21.75C25.5 22.7917 25.1354 23.6771 24.4063 24.4062C23.6771 25.1354 22.7917 25.5 21.75 25.5H15.6875Z" fill="#3949AB"/>
</svg>
